<?xml version="1.0"?>
<svg xmlns="http://www.w3.org/2000/svg" height="512px" viewBox="0 0 512 512" width="512px" class=""><g><path d="m422 181v105l-166 75-165-75v-105zm0 0" fill="#5a5a5a" data-original="#5A5A5A" class="" data-old_color="#5a5a5a" style="fill:#7D1919"/><path d="m422 181v105l-166 75v-180zm0 0" fill="#444" data-original="#444" class="active-path" data-old_color="#444" style="fill:#7F0808"/><path d="m482 136v240h-30v-225zm0 0" fill="#fdbf00" data-original="#FDBF00" class=""/><path d="m482 136v240h-15v-232.5zm0 0" fill="#ff9f00" data-original="#FF9F00" class=""/><path d="m467 354.699219-45 45v112.300781h90v-112.300781zm0 0" fill="#ffd400" data-original="#FFD400" class=""/><path d="m512 399.699219v112.300781h-45v-157.300781zm0 0" fill="#fdbf00" data-original="#FDBF00" class=""/><path d="m512 136-256 135-256-135 256-136zm0 0" fill="#6e6e6e" data-original="#6E6E6E" class="" data-old_color="#6e6e6e" style="fill:#910A0A"/><path d="m512 136-256 135v-271zm0 0" fill="#5a5a5a" data-original="#5A5A5A" class="" data-old_color="#5a5a5a" style="fill:#7D1919"/><path d="m256 91c-33.601562 0-60 19.800781-60 45s26.398438 45 60 45 60-19.800781 60-45-26.398438-45-60-45zm0 0" fill="#ffd400" data-original="#FFD400" class=""/><path d="m316 136c0 25.199219-26.398438 45-60 45v-90c33.601562 0 60 19.800781 60 45zm0 0" fill="#fdbf00" data-original="#FDBF00" class=""/></g> </svg>
